<?xml version="1.0" encoding="UTF-8"?> <!-- Generator: Adobe Illustrator 22.1.0, SVG Export Plug-In . SVG Version: 6.00 Build 0) --> <svg xmlns="http://www.w3.org/2000/svg" xmlns:xlink="http://www.w3.org/1999/xlink" id="Layer_1" x="0px" y="0px" viewBox="0 0 26 26" style="enable-background:new 0 0 26 26;" xml:space="preserve"> <style type="text/css"> .st0{fill:none;stroke:#FF5757;stroke-width:0.8365;stroke-linecap:round;stroke-linejoin:round;stroke-miterlimit:10;} .st1{fill:#FF5757;} </style> <path class="st0" d="M16.7,15.5L16.7,15.5c-0.9,0.1-1.8-0.5-1.9-1.5l-1-7.4l3.4-0.5l1,7.4C18.3,14.5,17.6,15.4,16.7,15.5z"></path> <line class="st0" x1="16.7" y1="15.5" x2="17.6" y2="22.4"></line> <line class="st0" x1="15.9" y1="23" x2="19.4" y2="22.5"></line> <line class="st0" x1="14.2" y1="10" x2="17.6" y2="9.6"></line> <circle class="st1" cx="16.7" cy="10.8" r="0.3"></circle> <circle class="st1" cx="15.9" cy="12.3" r="0.3"></circle> <circle class="st1" cx="16.8" cy="12.8" r="0.3"></circle> <path class="st0" d="M9.4,15.5L9.4,15.5c0.9,0.1,1.8-0.5,2-1.4l1.1-7.3L9.1,6.2L8,13.5C7.9,14.5,8.5,15.3,9.4,15.5z"></path> <line class="st0" x1="9.4" y1="15.5" x2="8.4" y2="22.4"></line> <line class="st0" x1="10" y1="23" x2="6.6" y2="22.5"></line> <line class="st0" x1="12" y1="10.1" x2="8.6" y2="9.5"></line> <circle class="st1" cx="9.5" cy="10.8" r="0.3"></circle> <circle class="st1" cx="10.3" cy="12.3" r="0.3"></circle> <circle class="st1" cx="9.4" cy="12.8" r="0.3"></circle> <line class="st0" x1="13.3" y1="4.4" x2="13.3" y2="3"></line> <line class="st0" x1="14.6" y1="5" x2="15.5" y2="4.1"></line> <line class="st0" x1="12.1" y1="5" x2="11.2" y2="4.1"></line> </svg> 