<?xml version="1.0" encoding="UTF-8"?> <!-- Generator: Adobe Illustrator 22.1.0, SVG Export Plug-In . SVG Version: 6.00 Build 0) --> <svg xmlns="http://www.w3.org/2000/svg" xmlns:xlink="http://www.w3.org/1999/xlink" id="Layer_1" x="0px" y="0px" viewBox="0 0 26 26" style="enable-background:new 0 0 26 26;" xml:space="preserve"> <style type="text/css"> .st0{fill:none;stroke:#FF5757;stroke-linecap:round;stroke-linejoin:round;stroke-miterlimit:10;} .st1{fill:#FF5757;} </style> <path class="st0" d="M9,22.7h8 M19,10.7c0,1.3-0.5,2.9-1.5,4.8c-1,1.8-2,3.3-3,4.5L13,21.6c-0.4-0.5-1-1.1-1.7-1.9s-1.6-2.2-2.7-4.1 S7,12,7,10.7C7,9,7.6,7.6,8.8,6.4s2.6-1.8,4.2-1.8s3.1,0.6,4.2,1.8S19,9,19,10.7z"></path> <path class="st1" d="M11,10.7c0,0.5,0.2,1,0.6,1.4s0.9,0.6,1.4,0.6c0.6,0,1-0.2,1.4-0.6s0.6-0.9,0.6-1.4c0-0.5-0.2-1-0.6-1.4 S13.5,8.6,13,8.6c-0.5,0-1,0.2-1.4,0.6S11,10.1,11,10.7L11,10.7z"></path> </svg> 