<?xml version="1.0" encoding="UTF-8"?> <!-- Generator: Adobe Illustrator 22.1.0, SVG Export Plug-In . SVG Version: 6.00 Build 0) --> <svg xmlns="http://www.w3.org/2000/svg" xmlns:xlink="http://www.w3.org/1999/xlink" id="Layer_1" x="0px" y="0px" viewBox="0 0 26 26" style="enable-background:new 0 0 26 26;" xml:space="preserve"> <style type="text/css"> .st0{fill:none;stroke:#FF5757;stroke-linecap:round;stroke-linejoin:round;stroke-miterlimit:10;} .st1{fill:none;stroke:#FF5757;stroke-linejoin:round;stroke-miterlimit:10;} .st2{fill:none;stroke:#FF5757;stroke-width:0.5;stroke-linecap:round;stroke-linejoin:round;stroke-miterlimit:10;} .st3{fill:#FF5757;} </style> <path class="st0" d="M18.3,9.1c0.8,0.8,1.2,1.7,1.2,2.8s-0.4,2-1.2,2.8 M16.7,10.7c0.3,0.3,0.5,0.7,0.5,1.2s-0.2,0.9-0.5,1.2 M19.9,7.4c1.2,1.2,1.8,2.7,1.8,4.5s-0.6,3.2-1.8,4.4"></path> <path class="st0" d="M16.2,16.2V20c0,0.7-0.5,1.2-1.2,1.2H8.3c-0.7,0-1.2-0.5-1.2-1.2V5.2C7.1,4.5,7.7,4,8.3,4H15 c0.7,0,1.2,0.5,1.2,1.2v2.2"></path> <line class="st1" x1="6.9" y1="18.1" x2="16.3" y2="18.1"></line> <line class="st1" x1="6.9" y1="6.4" x2="16.3" y2="6.4"></line> <line class="st2" x1="10.8" y1="5.1" x2="12.8" y2="5.1"></line> <circle class="st3" cx="11.7" cy="19.6" r="0.7"></circle> </svg> 